<?xml version="1.0" encoding="UTF-8" standalone="no"?>
<!DOCTYPE svg PUBLIC "-//W3C//DTD SVG 1.1//EN" "http://www.w3.org/Graphics/SVG/1.1/DTD/svg11.dtd">
<svg version="1.1" xmlns="http://www.w3.org/2000/svg" xmlns:xlink="http://www.w3.org/1999/xlink" preserveAspectRatio="xMidYMid meet" viewBox="0 0 256 256" width="256" height="256"><defs><path d="M256 127.8C256 198.36 198.65 255.66 128 255.66C57.35 255.66 0 198.36 0 127.8C0 57.23 57.35 -0.07 128 -0.07C198.65 -0.07 256 57.23 256 127.8Z" id="a8UEmeMC7"></path><path d="M143.65 0.95L148.75 1.68L153.78 2.6L158.74 3.72L163.63 5.03L168.44 6.53L173.17 8.21L177.8 10.07L182.35 12.1L186.8 14.3L191.15 16.66L195.4 19.19L199.55 21.87L203.57 24.71L207.49 27.7L211.28 30.83L214.95 34.1L218.49 37.51L221.9 41.05L225.17 44.72L228.3 48.51L231.29 52.43L234.13 56.45L236.81 60.6L239.34 64.85L241.7 69.2L243.9 73.65L245.93 78.2L247.79 82.83L249.47 87.56L250.97 92.37L252.28 97.26L253.4 102.22L254.32 107.25L255.05 112.35L255.58 117.51L255.89 122.73L256 128L255.89 133.27L255.58 138.49L255.05 143.65L254.32 148.75L253.4 153.78L252.28 158.74L250.97 163.63L249.47 168.44L247.79 173.17L245.93 177.8L243.9 182.35L241.7 186.8L239.34 191.15L236.81 195.4L234.13 199.55L231.29 203.57L228.3 207.49L225.17 211.28L221.9 214.95L218.49 218.49L215.24 221.62L215.19 221.38L214.95 220.41L214.7 219.46L214.43 218.54L214.14 217.63L213.83 216.75L213.51 215.9L213.17 215.06L212.82 214.25L212.46 213.45L212.09 212.68L211.71 211.93L211.32 211.2L210.92 210.49L210.52 209.8L210.1 209.13L209.69 208.48L209.26 207.84L208.84 207.23L208.41 206.64L207.98 206.06L207.56 205.51L207.13 204.97L206.7 204.45L206.28 203.95L205.86 203.46L205.44 202.99L205.03 202.54L204.63 202.11L204.23 201.69L203.84 201.29L203.47 200.9L203.1 200.54L202.74 200.18L202.4 199.84L202.07 199.52L201.75 199.21L201.45 198.92L201.17 198.64L200.9 198.38L200.72 198.2L200.49 198.01L200.24 197.8L199.96 197.58L199.64 197.35L199.29 197.11L198.91 196.85L198.49 196.58L198.04 196.29L197.56 196L197.05 195.69L196.5 195.36L195.93 195.02L195.32 194.67L194.67 194.31L194 193.93L193.29 193.54L192.55 193.14L191.78 192.72L190.97 192.29L190.13 191.85L189.26 191.39L188.36 190.92L187.43 190.44L186.46 189.94L185.46 189.43L184.43 188.91L183.36 188.37L182.26 187.83L181.14 187.26L179.97 186.69L178.78 186.1L177.55 185.5L176.29 184.88L175 184.25L173.67 183.61L172.32 182.95L170.93 182.28L169.5 181.6L168.05 180.91L166.77 180L165.52 179.09L164.32 178.2L163.17 177.33L162.05 176.46L160.98 175.6L159.95 174.76L158.97 173.92L158.02 173.1L157.12 172.29L156.27 171.49L155.45 170.7L154.68 169.92L153.95 169.15L153.26 168.4L152.61 167.65L152.01 166.92L151.45 166.19L150.93 165.48L150.46 164.78L150.02 164.09L149.63 163.42L149.28 162.75L148.98 162.09L148.72 161.45L148.5 160.82L148.32 160.19L148.19 159.58L148.09 158.98L148.04 158.39L148.04 157.82L148.07 157.25L148.15 156.7L148.27 156.15L148.43 155.62L148.64 155.1L148.89 154.59L149.18 154.09L149.51 153.6L149.89 153.12L150.47 152.42L151.03 151.73L151.56 151.06L152.07 150.39L152.55 149.74L153.01 149.1L153.45 148.48L153.87 147.86L154.26 147.26L154.63 146.68L154.99 146.1L155.32 145.55L155.63 145L155.93 144.47L156.2 143.96L156.46 143.46L156.71 142.97L156.94 142.5L157.15 142.05L157.34 141.61L157.53 141.19L157.69 140.78L157.85 140.39L157.99 140.02L158.12 139.66L158.24 139.32L158.35 138.99L158.45 138.69L158.54 138.4L158.62 138.13L158.69 137.87L158.76 137.64L158.82 137.42L158.87 137.22L158.91 137.04L158.95 136.88L158.99 136.74L159.02 136.61L159.04 136.51L159.07 136.43L159.09 136.35L159.1 136.27L159.11 136.18L159.11 136.08L159.1 135.98L159.1 135.88L159.08 135.77L159.07 135.66L159.05 135.54L159.02 135.43L159 135.31L158.97 135.19L158.95 135.07L158.92 134.95L158.89 134.84L158.86 134.72L158.84 134.6L158.81 134.49L158.79 134.38L158.77 134.27L158.75 134.17L158.74 134.07L158.73 133.97L158.72 133.88L158.72 133.8L158.73 133.72L158.74 133.65L158.76 133.59L158.78 133.54L158.82 133.49L158.86 133.46L158.91 133.43L158.96 133.41L159.03 133.41L159.11 133.42L159.2 133.43L159.3 133.46L159.41 133.51L159.54 133.56L159.67 133.64L159.77 133.69L159.86 133.74L159.95 133.78L160.04 133.83L160.13 133.87L160.21 133.91L160.3 133.95L160.38 133.99L160.46 134.02L160.54 134.06L160.61 134.09L160.69 134.12L160.76 134.14L160.83 134.17L160.9 134.19L160.97 134.21L161.04 134.23L161.1 134.24L161.17 134.26L161.23 134.27L161.29 134.28L161.34 134.29L161.4 134.3L161.45 134.3L161.51 134.3L161.56 134.3L161.6 134.3L161.65 134.3L161.7 134.29L161.74 134.28L161.78 134.27L161.82 134.26L161.86 134.25L161.9 134.23L161.93 134.21L161.96 134.19L161.99 134.17L162.02 134.14L162.05 134.12L162.08 134.09L162.2 133.99L162.31 133.89L162.43 133.79L162.55 133.69L162.67 133.58L162.79 133.46L162.9 133.35L163.02 133.23L163.14 133.1L163.26 132.98L163.37 132.85L163.49 132.71L163.6 132.58L163.72 132.44L163.83 132.29L163.95 132.15L164.06 131.99L164.18 131.84L164.29 131.68L164.4 131.52L164.52 131.36L164.63 131.19L164.74 131.02L164.85 130.84L164.96 130.66L165.08 130.48L165.19 130.3L165.3 130.11L165.41 129.92L165.52 129.72L165.63 129.52L165.74 129.32L165.85 129.11L165.95 128.9L166.06 128.69L166.17 128.47L166.28 128.25L166.39 128.03L166.49 127.8L166.6 127.57L166.76 127.22L166.91 126.86L167.06 126.48L167.21 126.09L167.35 125.69L167.49 125.28L167.63 124.86L167.76 124.43L167.9 123.98L168.02 123.53L168.15 123.06L168.27 122.58L168.39 122.09L168.51 121.59L168.62 121.07L168.74 120.55L168.85 120.01L168.96 119.46L169.07 118.9L169.17 118.33L169.28 117.74L169.38 117.14L169.48 116.54L169.58 115.91L169.68 115.28L169.78 114.64L169.88 113.98L169.97 113.31L170.07 112.63L170.17 111.93L170.26 111.23L170.36 110.51L170.46 109.78L170.55 109.04L170.65 108.28L170.74 107.51L170.84 106.73L170.94 105.94L171.04 105.13L171.13 104.32L171.2 103.76L171.26 103.19L171.32 102.62L171.37 102.03L171.42 101.43L171.47 100.82L171.51 100.2L171.55 99.57L171.58 98.93L171.61 98.27L171.64 97.61L171.66 96.93L171.68 96.25L171.7 95.55L171.71 94.84L171.72 94.12L171.72 93.39L171.72 92.65L171.72 91.9L171.71 91.14L171.7 90.36L171.69 89.58L171.67 88.78L171.65 87.98L171.63 87.16L171.6 86.33L171.57 85.49L171.53 84.64L171.49 83.78L171.45 82.91L171.4 82.03L171.35 81.13L171.29 80.23L171.23 79.31L171.17 78.39L171.11 77.45L171.04 76.5L170.96 75.54L170.88 74.57L170.8 73.59L170.57 72.82L170.32 72.06L170.07 71.31L169.81 70.58L169.54 69.85L169.27 69.13L168.98 68.43L168.69 67.73L168.39 67.05L168.08 66.37L167.76 65.71L167.44 65.06L167.11 64.41L166.76 63.78L166.41 63.16L166.06 62.55L165.69 61.95L165.32 61.36L164.94 60.78L164.55 60.22L164.15 59.66L163.74 59.11L163.33 58.57L162.91 58.05L162.48 57.53L162.04 57.03L161.59 56.53L161.13 56.05L160.67 55.58L160.2 55.12L159.72 54.67L159.23 54.22L158.74 53.79L158.24 53.37L157.72 52.96L157.2 52.57L156.68 52.18L156.14 51.8L155.6 51.43L155.04 51.08L154.22 50.57L153.4 50.08L152.59 49.63L151.79 49.21L151 48.81L150.23 48.44L149.46 48.09L148.7 47.77L147.95 47.47L147.21 47.19L146.47 46.93L145.75 46.7L145.03 46.48L144.32 46.28L143.62 46.1L142.92 45.93L142.24 45.78L141.56 45.65L140.88 45.53L140.21 45.42L139.55 45.32L138.89 45.23L138.24 45.15L137.6 45.08L136.95 45.02L136.32 44.96L135.69 44.91L135.06 44.86L134.43 44.82L133.81 44.78L133.2 44.75L132.58 44.71L131.97 44.67L131.37 44.63L130.76 44.59L130.16 44.55L129.56 44.5L128.96 44.45L128.36 44.39L127.76 44.32L127.15 44.26L126.48 44.23L125.78 44.21L125.04 44.22L124.26 44.26L123.45 44.32L122.6 44.41L121.73 44.53L120.82 44.68L119.89 44.87L118.93 45.08L117.95 45.33L116.95 45.61L115.93 45.93L114.89 46.29L113.84 46.69L112.77 47.13L111.69 47.6L110.61 48.13L109.51 48.69L108.42 49.3L107.32 49.96L106.21 50.66L105.11 51.41L104.02 52.21L102.92 53.07L101.84 53.97L100.76 54.93L99.7 55.94L98.64 57.01L97.61 58.14L96.59 59.32L95.59 60.56L94.61 61.87L93.65 63.23L92.72 64.66L91.81 66.16L90.94 67.72L90.09 69.34L89.28 71.03L88.76 72.19L88.27 73.33L87.79 74.48L87.35 75.62L86.92 76.76L86.52 77.89L86.14 79.02L85.79 80.15L85.46 81.28L85.15 82.4L84.86 83.52L84.6 84.64L84.36 85.75L84.15 86.86L83.96 87.97L83.79 89.07L83.64 90.17L83.52 91.27L83.42 92.36L83.35 93.45L83.3 94.54L83.27 95.63L83.26 96.71L83.28 97.79L83.32 98.86L83.39 99.93L83.47 101L83.59 102.07L83.72 103.13L83.88 104.19L84.06 105.25L84.26 106.3L84.49 107.35L84.74 108.4L85.02 109.45L85.32 110.49L85.64 111.52L85.98 112.56L86.35 113.59L86.74 114.62L86.83 114.82L86.92 115.02L87 115.21L87.08 115.4L87.16 115.59L87.23 115.78L87.3 115.96L87.36 116.14L87.42 116.32L87.48 116.49L87.53 116.67L87.58 116.84L87.63 117L87.67 117.17L87.71 117.33L87.74 117.48L87.77 117.64L87.8 117.79L87.82 117.94L87.84 118.09L87.85 118.23L87.87 118.38L87.87 118.51L87.88 118.65L87.88 118.78L87.87 118.91L87.87 119.04L87.85 119.17L87.84 119.29L87.82 119.41L87.8 119.53L87.77 119.64L87.74 119.75L87.7 119.86L87.67 119.96L87.62 120.07L87.58 120.17L87.53 120.26L87.48 120.36L87.42 120.45L87.34 120.59L87.27 120.73L87.22 120.88L87.18 121.03L87.16 121.19L87.14 121.35L87.14 121.52L87.16 121.69L87.18 121.86L87.21 122.04L87.25 122.22L87.3 122.4L87.36 122.59L87.43 122.78L87.5 122.97L87.58 123.16L87.67 123.35L87.76 123.55L87.86 123.74L87.96 123.94L88.07 124.13L88.18 124.33L88.29 124.52L88.4 124.72L88.52 124.91L88.64 125.11L88.75 125.3L88.87 125.49L88.99 125.68L89.1 125.87L89.22 126.05L89.33 126.24L89.43 126.41L89.54 126.59L89.64 126.77L89.73 126.93L89.82 127.1L89.91 127.26L89.99 127.42L90.06 127.57L90.12 127.72L90.18 127.86L90.23 128L90.28 128.13L90.33 128.26L90.36 128.38L90.4 128.5L90.43 128.61L90.46 128.72L90.48 128.82L90.5 128.92L90.52 129.02L90.53 129.11L90.54 129.2L90.55 129.28L90.56 129.37L90.56 129.45L90.57 129.52L90.57 129.6L90.57 129.67L90.56 129.74L90.56 129.81L90.56 129.88L90.55 129.94L90.55 130.01L90.54 130.13L90.53 130.19L90.53 130.25L90.53 130.31L90.52 130.37L90.52 130.43L90.52 130.49L90.52 130.54L90.53 130.6L90.53 130.66L90.54 130.73L90.55 130.79L90.56 130.85L90.58 130.91L90.59 130.96L90.61 131L90.63 131.05L90.66 131.09L90.68 131.14L90.71 131.18L90.75 131.23L90.79 131.27L90.83 131.32L90.88 131.36L90.93 131.41L90.98 131.46L91.04 131.5L91.1 131.55L91.16 131.6L91.23 131.65L91.3 131.7L91.38 131.75L91.46 131.8L91.54 131.84L91.62 131.89L91.71 131.94L91.81 131.99L91.9 132.05L92 132.1L92.11 132.15L92.22 132.2L92.33 132.25L92.44 132.3L92.56 132.36L92.68 132.41L92.81 132.46L92.94 132.52L93.07 132.57L93.21 132.62L93.35 132.68L93.49 132.73L93.64 132.79L93.79 132.84L93.95 132.9L97.33 145.55L97.33 146.15L97.32 146.74L97.31 147.33L97.29 147.9L97.27 148.47L97.24 149.03L97.2 149.59L97.16 150.13L97.11 150.67L97.05 151.2L96.99 151.72L96.92 152.23L96.84 152.74L96.76 153.24L96.67 153.73L96.57 154.21L96.47 154.68L96.36 155.15L96.25 155.61L96.12 156.06L96 156.5L95.86 156.93L95.72 157.36L95.57 157.78L95.42 158.19L95.26 158.59L95.09 158.99L94.92 159.37L94.74 159.75L94.55 160.12L94.36 160.49L94.16 160.84L93.96 161.19L93.75 161.53L93.53 161.86L93.3 162.18L93.07 162.5L92.83 162.8L92.59 163.1L92.34 163.39L91.92 163.83L91.44 164.28L90.89 164.74L90.28 165.22L89.6 165.7L88.87 166.2L88.09 166.71L87.25 167.23L86.36 167.76L85.42 168.3L84.43 168.86L83.4 169.42L82.33 169.99L81.23 170.57L80.09 171.17L78.91 171.77L77.7 172.38L76.47 173L75.21 173.63L73.93 174.26L72.63 174.91L71.3 175.56L69.97 176.22L68.62 176.89L67.26 177.57L65.89 178.25L64.51 178.94L63.14 179.64L61.76 180.34L60.39 181.05L59.01 181.77L57.65 182.49L56.3 183.22L54.95 183.95L53.63 184.69L52.32 185.43L51.02 186.18L49.76 186.94L48.51 187.69L47.29 188.46L46.5 188.96L45.72 189.47L44.95 189.97L44.2 190.48L43.46 190.98L42.74 191.47L42.03 191.97L41.34 192.46L40.66 192.96L40 193.45L39.35 193.93L38.71 194.42L38.09 194.9L37.48 195.39L36.89 195.87L36.31 196.34L35.75 196.82L35.2 197.29L34.66 197.77L34.14 198.24L33.64 198.7L33.15 199.17L32.67 199.63L32.21 200.09L31.76 200.55L31.32 201.01L30.9 201.47L30.5 201.92L30.11 202.37L29.73 202.82L29.37 203.27L29.02 203.72L28.69 204.16L28.37 204.6L28.07 205.04L27.78 205.48L27.51 205.91L27.25 206.35L27.07 206.66L24.71 203.57L21.87 199.55L19.19 195.4L16.66 191.15L14.3 186.8L12.1 182.35L10.07 177.8L8.21 173.17L6.53 168.44L5.03 163.63L3.72 158.74L2.6 153.78L1.68 148.75L0.95 143.65L0.42 138.49L0.11 133.27L0 128L0.11 122.73L0.42 117.51L0.95 112.35L1.68 107.25L2.6 102.22L3.72 97.26L5.03 92.37L6.53 87.56L8.21 82.83L10.07 78.2L12.1 73.65L14.3 69.2L16.66 64.85L19.19 60.6L21.87 56.45L24.71 52.43L27.7 48.51L30.83 44.72L34.1 41.05L37.51 37.51L41.05 34.1L44.72 30.83L48.51 27.7L52.43 24.71L56.45 21.87L60.6 19.19L64.85 16.66L69.2 14.3L73.65 12.1L78.2 10.07L82.83 8.21L87.56 6.53L92.37 5.03L97.26 3.72L102.22 2.6L107.25 1.68L112.35 0.95L117.51 0.42L122.73 0.11L128 0L133.27 0.11L138.49 0.42L138.49 0.42L143.65 0.95Z" id="f1NnRo2Oq"></path><linearGradient id="gradienta8Q9p3UMnE" gradientUnits="userSpaceOnUse" x1="128" y1="0" x2="123.45" y2="441"><stop style="stop-color: #f44545;stop-opacity: 1" offset="0%"></stop><stop style="stop-color: #830000;stop-opacity: 1" offset="100%"></stop></linearGradient><path d="" id="j2vStgxFAv"></path><path d="" id="b17E4fxgtW"></path></defs><g><g><g><use xlink:href="#a8UEmeMC7" opacity="1" fill="#ffffff" fill-opacity="1"></use></g><g><use xlink:href="#f1NnRo2Oq" opacity="1" fill="url(#gradienta8Q9p3UMnE)"></use></g><g><g><use xlink:href="#j2vStgxFAv" opacity="1" fill-opacity="0" stroke="#000000" stroke-width="1" stroke-opacity="1"></use></g></g><g><g><use xlink:href="#b17E4fxgtW" opacity="1" fill-opacity="0" stroke="#000000" stroke-width="1" stroke-opacity="1"></use></g></g></g></g></svg>